<?xml version="1.0" encoding="UTF-8" standalone="no"?><!DOCTYPE svg PUBLIC "-//W3C//DTD SVG 1.1//EN" "http://www.w3.org/Graphics/SVG/1.1/DTD/svg11.dtd"><svg width="100%" height="100%" viewBox="0 0 77 77" version="1.1" xmlns="http://www.w3.org/2000/svg" xmlns:xlink="http://www.w3.org/1999/xlink" xml:space="preserve" xmlns:serif="http://www.serif.com/" style="fill-rule:evenodd;clip-rule:evenodd;stroke-linejoin:round;stroke-miterlimit:2;"><ellipse cx="38.4" cy="38.4" rx="95.04" ry="58.8"/><path d="M55.2,30.24l0,25.92c0,4.636 -3.764,8.4 -8.4,8.4l-16.8,0c-4.636,0 -8.4,-3.764 -8.4,-8.4l0,-25.92c0,-4.636 3.764,-8.4 8.4,-8.4l16.8,0c4.636,0 8.4,3.764 8.4,8.4Z" style="fill:#fff;"/><path d="M53.52,31.153l0,24.334c0,4.172 -3.388,7.56 -7.56,7.56l-15.12,0c-4.172,0 -7.56,-3.388 -7.56,-7.56l0,-24.334c0,-4.172 3.388,-7.56 7.56,-7.56l15.12,0c4.172,0 7.56,3.388 7.56,7.56Z"/><path d="M51.24,30.6l0,24.24c0,4.04 -3.28,7.32 -7.32,7.32l-14.64,0c-4.04,0 -7.32,-3.28 -7.32,-7.32l0,-24.24c0,-4.04 3.28,-7.32 7.32,-7.32l14.64,0c4.04,0 7.32,3.28 7.32,7.32Z" style="fill:#fff;"/><path d="M51.24,13.38l0,5.64c0,1.556 -1.264,2.82 -2.82,2.82l-20.04,0c-1.556,0 -2.82,-1.264 -2.82,-2.82l0,-5.64c0,-1.556 1.264,-2.82 2.82,-2.82l20.04,0c1.556,0 2.82,1.264 2.82,2.82Z" style="fill:#fff;"/><path d="M50.04,13.98l0,4.44c0,1.225 -0.995,2.22 -2.22,2.22l-18.6,0c-1.225,0 -2.22,-0.995 -2.22,-2.22l0,-4.44c0,-1.225 0.995,-2.22 2.22,-2.22l18.6,0c1.225,0 2.22,0.995 2.22,2.22Z"/><path d="M48.6,13.8l0,4.08c0,1.126 -0.914,2.04 -2.04,2.04l-18.96,0c-1.126,0 -2.04,-0.914 -2.04,-2.04l0,-4.08c0,-1.126 0.914,-2.04 2.04,-2.04l18.96,0c1.126,0 2.04,0.914 2.04,2.04Z" style="fill:#fff;"/><g transform="matrix(27.474192,0,0,27.474192,44.341562,52.638054)"></g><text x="29.082px" y="52.638px" style="font-family:'Ramabhadra';font-size:27.474px;">J</text></svg>